<?xml version="1.0" encoding="utf-8"?>
<!-- Generator: Adobe Illustrator 15.1.0, SVG Export Plug-In . SVG Version: 6.00 Build 0)  -->
<!DOCTYPE svg PUBLIC "-//W3C//DTD SVG 1.1//EN" "http://www.w3.org/Graphics/SVG/1.1/DTD/svg11.dtd">
<svg version="1.1" id="Layer_1" xmlns="http://www.w3.org/2000/svg" xmlns:xlink="http://www.w3.org/1999/xlink" x="0px" y="0px"
	 width="145px" height="80px" viewBox="0 0 145 80" enable-background="new 0 0 145 80" xml:space="preserve">
<path fill="#010101" d="M133.45,56.081h10.804v1.117c-0.37,0-0.743,0-1.116,0h-7.452v9.314h7.267c0.559,0,0.932,0,1.302-0.186v1.116
	c-0.37,0-0.743,0-1.302,0h-7.267v9.873h7.267c0.186,0,0.559,0,1.302-0.186v1.305h-10.616c0-0.373,0-0.746,0-1.119V57.198
	C133.45,56.825,133.45,56.452,133.45,56.081 M118.174,66.886h2.236c1.119,0,2.235-0.188,3.167-0.746
	c1.49-0.932,2.421-2.236,2.421-4.1c0-0.743-0.185-1.675-0.558-2.233c-0.373-0.746-0.932-1.305-1.49-1.678
	c-0.932-0.558-2.236-0.931-3.913-0.931h-2.049L118.174,66.886L118.174,66.886z M118.174,67.816v9.5c0,0.373,0,0.746,0.188,1.119
	h-2.421c0-0.373,0.186-0.746,0.186-1.119V57.198c0-0.373,0-0.746-0.186-1.117h5.027c1.492,0,2.795,0.186,3.914,0.744
	c0.932,0.373,1.862,1.119,2.421,1.862c0.746,0.932,0.932,2.051,0.932,3.168c0,1.677-0.559,3.167-1.863,4.099
	c-1.304,0.932-2.979,1.489-5.403,1.675l8.944,9.875c0.186,0.371,0.559,0.559,0.932,0.744h-3.355
	c-0.186-0.186-0.371-0.559-0.559-0.932L118.174,67.816z M99.545,69.865h8.756l-4.47-11.551L99.545,69.865z M99.174,70.797
	l-2.608,6.707c0,0.186-0.186,0.371-0.186,0.932h-1.305c0.186-0.373,0.373-0.561,0.373-0.932l7.637-20.679
	c0-0.186,0.186-0.373,0.186-0.744h2.051c0,0.186,0,0.371,0.186,0.559l8.01,20.864c0,0.186,0.188,0.559,0.561,0.932h-2.608
	c0-0.373,0-0.561-0.186-0.932l-2.609-6.707H99.174L99.174,70.797z M82.967,58.502l-5.403,19.002c0,0.186-0.186,0.371-0.186,0.932
	h-2.051c0-0.373,0-0.746-0.186-1.119L69.74,57.198c0-0.373-0.187-0.559-0.373-0.932h2.236l0,0c0,0,0,0.373,0.187,0.746l5.216,18.814
	l5.403-18.814c0-0.373,0.186-0.561,0.186-0.746v-0.186h2.235v0.186c0,0.186,0,0.373,0.186,0.746l5.589,18.814l5.03-18.814
	c0-0.373,0.186-0.561,0.186-0.746h1.119c0,0.186-0.188,0.373-0.373,0.746l-5.589,20.491c0,0.186-0.186,0.371-0.186,0.932H88.74
	c0-0.373,0-0.746-0.185-1.119L82.967,58.502z M51.856,56.081h16.021v1.302c-0.745-0.185-1.305-0.185-1.676-0.185h-5.403v19.933
	c0,0.373,0,0.744,0.187,1.117h-2.421c0-0.373,0.187-0.744,0.187-1.117V57.198H53.16c-0.373,0-0.931,0-1.491,0.185L51.856,56.081
	L51.856,56.081z M39.002,56.081H49.62v1.117c-0.372,0-0.745-0.186-1.304-0.186h-7.08v9.5h6.148c0.372,0,0.745,0,1.118-0.186v1.116
	c-0.373,0-0.746-0.185-1.118-0.185h-6.148v9.872c0,0.373,0,0.744,0.187,1.117h-2.421c0-0.373,0.187-0.744,0.187-1.117V57.198
	C39.188,56.825,39.002,56.452,39.002,56.081z M25.589,57.013c-2.981,0-5.029,0.932-6.52,2.979c-1.304,1.863-1.863,4.099-1.863,7.078
	c0,3.168,0.56,5.589,1.863,7.452c1.491,2.051,3.726,2.981,6.707,2.981c2.794,0,5.03-0.931,6.52-2.794
	c1.305-1.863,2.049-4.286,2.049-7.451c0-3.168-0.745-5.589-2.049-7.452c-0.745-0.932-1.676-1.678-2.794-2.235
	C28.383,57.198,27.08,57.013,25.589,57.013z M25.775,55.894c3.353,0,6.147,0.932,8.01,2.981c2.05,2.049,2.981,4.843,2.981,8.384
	c0,3.726-0.931,6.52-2.981,8.568c-1.863,1.862-4.471,2.979-8.01,2.979c-3.54,0-6.333-0.932-8.197-2.979
	c-1.863-2.049-2.794-4.843-2.794-8.568c0-3.541,0.931-6.149,2.98-8.198C19.628,56.825,22.236,55.894,25.775,55.894z M-0.305,76.943
	l0.559-1.862c0.56,0.373,0.931,0.746,1.491,1.119c1.118,0.743,2.421,1.116,3.913,1.116c1.676,0,2.979-0.559,3.911-1.489
	c0.746-0.746,1.118-1.863,1.118-2.98c0-1.492-0.558-2.608-1.676-3.54c-0.559-0.373-1.863-0.932-3.726-1.863
	c-1.863-0.931-3.167-1.677-3.913-2.608c-0.931-0.932-1.49-2.233-1.49-3.538c0-1.119,0.372-2.051,0.932-2.982
	c1.303-1.675,3.166-2.606,5.96-2.606c1.677,0,3.167,0.373,4.844,1.117l-0.559,1.489c-1.676-0.932-3.167-1.489-4.657-1.489
	c-1.491,0-2.608,0.373-3.539,1.304c-0.746,0.746-1.118,1.678-1.118,2.609s0.372,1.863,0.932,2.606
	c0.745,0.746,2.049,1.49,3.912,2.422c1.303,0.561,2.235,1.119,2.794,1.492c0.559,0.37,1.117,0.743,1.49,1.116
	c1.118,1.117,1.676,2.422,1.676,3.911c0,1.119-0.372,2.236-0.931,3.168c-1.303,2.05-3.353,2.981-6.333,2.981
	C3.42,78.621,1.558,78.063-0.305,76.943z"/>
<path fill="#010101" d="M81.104,47.138l1.305-4.097c1.117,0.932,2.233,1.862,2.979,2.421c2.422,1.676,5.403,2.606,8.383,2.606
	c3.541,0,6.335-1.116,8.384-3.353c1.677-1.862,2.608-4.099,2.608-6.706c0-3.167-1.305-5.775-3.726-7.824
	c-1.119-0.932-3.54-2.236-7.64-4.285c-4.099-2.049-6.893-3.912-8.568-5.588c-2.235-2.236-3.167-4.657-3.167-7.825
	c0-2.421,0.746-4.657,2.236-6.707c2.794-3.726,7.078-5.589,12.853-5.589c3.354,0,6.893,0.745,10.434,2.422l-1.305,3.353
	c-3.541-2.236-6.894-3.353-9.873-3.353c-3.167,0-5.589,0.932-7.451,2.98c-1.49,1.677-2.236,3.541-2.236,5.775
	c0,2.236,0.746,4.099,2.236,5.588c1.489,1.491,4.284,3.354,8.383,5.402c2.794,1.304,4.843,2.422,6.146,3.354
	c1.305,0.745,2.236,1.676,3.168,2.607c2.421,2.608,3.538,5.402,3.538,8.756c0,2.421-0.744,4.843-2.049,7.078
	c-2.794,4.473-7.451,6.706-13.599,6.706C89.299,50.678,85.202,49.561,81.104,47.138 M5.657,25.342h5.774
	c2.794,0,5.217-0.372,6.893-1.118c1.863-0.745,3.353-2.048,4.471-3.726c1.118-1.863,1.676-3.912,1.676-6.334
	c0-3.353-1.117-5.96-3.353-8.01c-2.236-1.863-5.216-2.981-8.941-2.981H5.47L5.657,25.342L5.657,25.342z M58.749,23.292h14.903
	c-0.188,0.746-0.188,1.678-0.188,2.236V44.53c0,0.932,0.188,1.863,0.561,2.607c-3.914,1.304-6.894,2.235-9.129,2.794
	c-2.236,0.373-4.657,0.746-7.265,0.746c-7.08,0-12.481-2.236-16.579-6.521c-4.286-4.843-6.521-10.991-6.521-18.815
	c0-8.383,2.608-14.903,7.824-19.561c4.099-3.726,9.688-5.402,16.58-5.402c2.236,0,4.285,0.187,6.334,0.559
	c1.863,0.373,4.284,1.118,6.892,2.236v4.284c-4.844-2.794-9.501-4.284-13.972-4.284c-5.216,0-9.501,1.676-12.854,5.216
	c-2.05,2.049-3.353,4.285-4.099,6.893c-0.931,3.167-1.49,6.52-1.49,10.433c0,2.607,0.373,5.215,0.932,7.823
	c0.558,2.609,1.304,4.657,2.236,6.148c1.863,3.354,4.657,5.775,8.383,7.08c2.421,0.932,4.843,1.302,7.637,1.302
	c3.54,0,6.893-0.931,10.246-2.606V24.97H59.121L58.749,23.292L58.749,23.292z M5.657,27.578v20.306c0,0.746,0,1.489,0.185,2.235
	H0.626c0.187-0.746,0.187-1.489,0.187-2.235V3.36c0-0.745,0-1.491-0.187-2.422h13.04c3.353,0,6.333,0.746,9.128,2.049
	c4.286,2.236,6.52,5.775,6.52,10.619c0,3.912-1.303,7.079-4.098,9.501c-3.167,2.794-7.638,4.284-13.413,4.284L5.657,27.578
	L5.657,27.578z"/>
<rect x="115.567" y="1.311" fill="#F4772B" width="29.433" height="48.25"/>
</svg>
